<?xml version="1.0" encoding="UTF-8" standalone="no"?>
<!-- Created with Inkscape (http://www.inkscape.org/) -->

<svg
   width="3369.8586mm"
   height="984.58685mm"
   viewBox="0 0 3369.8587 984.58685"
   version="1.1"
   id="svg1"
   xml:space="preserve"
   xmlns="http://www.w3.org/2000/svg"
   xmlns:svg="http://www.w3.org/2000/svg"><defs
     id="defs1"><path
       id="a"
       d="M -939.5,-1398 H -493 v 110 h -446.5 z" /></defs><g
     id="layer1"
     transform="translate(3326.9996,1663.1979)"><path
       style="fill:#e9f2ec;stroke-width:8.56832"
       d="m -2854.4253,-1653.4695 -81.632,178.3832 219.04,463.844 82.9272,0.52 80.2,1.8264 z m -472.5743,970.784 c 0.08,2.496 0.24,3.9552 0.456,4.0744 h 0.08 c 0.104,-0.096 0.216,-0.456 0.336,-1.1472 0.112,-0.68 0.2,-1.4864 0.264,-2.3856 a 90.959701,104.34292 0 0 0 -1.104,-0.544 z"
       id="path1" /><path
       style="fill:#dbece2;stroke-width:8.56832"
       d="m -2973.2725,-962.74149 -72.9919,149.93519 588.1023,8.608 -74.32,-157.58879 z"
       id="path2" /><path
       style="fill:#d6e6dc;stroke-width:8.56832"
       d="m -2853.5853,-1645.5775 c 44.84,57.5864 0,0 0,0 z"
       id="path3" /><path
       style="fill:#cad7cf;stroke-width:8.56832"
       d="m -2777.5933,-1020.0615 c -1.536,0 -3.144,0.128 -4.456,0.424 -2.64,0.576 -0.984,1.0736 3.68,1.1016 4.656,0 6.8,-0.456 4.784,-1.0648 a 17.495943,20.070182 0 0 0 -4,-0.456 z m -547.2463,338.4312 c 0.08,1.8264 0.224,2.8816 0.4,2.992 h 0.08 c 0.104,0 0.224,-0.416 0.344,-1.1384 a 14.559952,16.702209 0 0 0 0.176,-1.34 l -0.976,-0.512 z"
       id="path4" /><path
       style="fill:#a9d1bc;stroke-width:8.56832"
       d="m -2951.5365,-1437.3223 -286.1591,617.6328 143.3592,1.0744 215.2551,-450.052 z"
       id="path5" /><path
       style="fill:#89a796;stroke-width:8.56832"
       d="m -2466.5973,-1538.8631 c 0.096,0.312 0.2,0.376 0.32,0.184 z"
       id="path6" /><path
       style="fill:#1b5539;stroke-width:8.56832"
       d="m -2858.8653,-1212.7511 -96.0472,199.6368 195.0632,2.4408 z"
       id="path7" /><g
       id="g168"
       transform="matrix(24.89525,0,0,28.558175,74589.935,-84033.333)"><g
         id="g167"><path
           d="m -3068.3755,2902.5472 -2.4,9.2329 h -1.383 l -1.94,-7.6649 -1.898,7.6649 h -1.352 l -2.443,-9.2329 h 1.259 l 1.94,7.677 1.91,-7.677 h 1.247 l 1.928,7.751 1.929,-7.751 z m 6.896,5.89 h -5.104 q 0,0.64 0.192,1.117 0.193,0.471 0.527,0.775 0.323,0.298 0.763,0.447 0.447,0.148 0.98,0.148 0.707,0 1.42,-0.279 0.72,-0.285 1.023,-0.558 h 0.062 v 1.271 q -0.589,0.249 -1.203,0.4159 -0.614,0.167 -1.29,0.167 -1.724,0 -2.69,-0.9299 -0.968,-0.936 -0.968,-2.654 0,-1.699 0.924,-2.697 0.93,-0.999 2.443,-0.999 1.401,0 2.158,0.819 0.763,0.818 0.763,2.325 z m -1.135,-0.892 q -0.01,-0.918 -0.465,-1.42 -0.453,-0.503 -1.383,-0.503 -0.936,0 -1.495,0.552 -0.551,0.552 -0.626,1.37 z m 8.9979,0.72 q 0,0.867 -0.248,1.562 -0.242,0.694 -0.658,1.166 -0.44,0.49 -0.967,0.738 -0.5269,0.2409 -1.1599,0.2409 -0.589,0 -1.029,-0.142 -0.44,-0.1369 -0.868,-0.3719 l -0.075,0.3219 h -1.09 v -9.6489 h 1.165 v 3.448 q 0.49,-0.403 1.042,-0.657 0.552,-0.26 1.24,-0.26 1.2279,0 1.9349,0.942 0.713,0.942 0.713,2.66 z m -1.203,0.03 q 0,-1.24 -0.41,-1.879 -0.4089,-0.645 -1.3199,-0.645 -0.509,0 -1.03,0.223 -0.52,0.217 -0.967,0.565 v 3.968 q 0.496,0.224 0.85,0.31 0.36,0.087 0.812,0.087 0.967,0 1.5129,-0.632 0.552,-0.639 0.552,-1.997 z m 15.379,-1.122 q 0,1.259 -0.552,2.282 -0.546,1.023 -1.458,1.587 -0.632,0.39 -1.413,0.565 -0.776,0.1729 -2.047,0.1729 h -2.331 v -9.2329 h 2.306 q 1.352,0 2.146,0.198 0.8,0.192 1.352,0.533 0.942,0.59 1.47,1.57 0.527,0.979 0.527,2.325 z m -1.284,-0.019 q 0,-1.085 -0.378,-1.83 -0.379,-0.743 -1.129,-1.171 -0.546,-0.31 -1.16,-0.428 -0.613,-0.124 -1.47,-0.124 h -1.153 v 7.125 h 1.154 q 0.887,0 1.544,-0.13 0.663,-0.13 1.215,-0.484 0.689,-0.44 1.03,-1.16 0.347,-0.719 0.347,-1.798 z m 8.973,1.284 h -5.103 q 0,0.638 0.192,1.116 0.192,0.471 0.527,0.775 0.322,0.298 0.763,0.447 0.446,0.148 0.98,0.148 0.706,0 1.42,-0.279 0.719,-0.285 1.023,-0.558 h 0.062 v 1.271 q -0.59,0.249 -1.203,0.4159 -0.614,0.167 -1.29,0.167 -1.724,0 -2.691,-0.9299 -0.968,-0.936 -0.968,-2.654 0,-1.699 0.924,-2.697 0.93,-0.999 2.443,-0.999 1.402,0 2.158,0.819 0.763,0.818 0.763,2.325 z m -1.135,-0.893 q -0.01,-0.918 -0.465,-1.42 -0.452,-0.503 -1.383,-0.503 -0.936,0 -1.494,0.552 -0.552,0.552 -0.626,1.37 z m 7.851,2.238 q 0,0.95 -0.788,1.557 -0.78,0.6079 -2.139,0.6079 -0.769,0 -1.414,-0.18 -0.639,-0.1859 -1.073,-0.4029 v -1.309 h 0.062 q 0.552,0.416 1.228,0.664 0.676,0.242 1.296,0.242 0.77,0 1.203,-0.248 0.434,-0.249 0.434,-0.782 0,-0.41 -0.235,-0.62 -0.236,-0.21 -0.906,-0.36 -0.248,-0.055 -0.65,-0.13 -0.398,-0.074 -0.726,-0.161 -0.912,-0.242 -1.296,-0.707 -0.379,-0.471 -0.379,-1.153 0,-0.428 0.174,-0.807 0.18,-0.378 0.54,-0.675 0.347,-0.292 0.88,-0.46 0.54,-0.173 1.203,-0.173 0.62,0 1.253,0.155 0.638,0.149 1.06,0.366 v 1.246 h -0.062 q -0.446,-0.328 -1.085,-0.552 -0.639,-0.229 -1.253,-0.229 -0.638,0 -1.079,0.248 -0.44,0.242 -0.44,0.726 0,0.427 0.267,0.644 0.26,0.218 0.843,0.354 0.322,0.074 0.72,0.149 0.402,0.074 0.67,0.136 0.811,0.186 1.252,0.639 0.44,0.459 0.44,1.215 z m 2.9199,-6.09 h -1.314 v -1.208 h 1.315 z m -0.074,8.0869 h -1.165 v -6.9269 h 1.165 z m 7.925,-0.7869 q 0,1.7599 -0.8,2.5849 -0.8,0.825 -2.461,0.825 -0.552,0 -1.08,-0.08 -0.52,-0.075 -1.029,-0.217 v -1.191 h 0.062 q 0.285,0.112 0.906,0.273 0.62,0.167 1.24,0.167 0.595,0 0.986,-0.142 0.39,-0.143 0.608,-0.397 0.217,-0.242 0.31,-0.583 0.093,-0.341 0.093,-0.7629 v -0.632 q -0.527,0.421 -1.011,0.632 -0.478,0.205 -1.222,0.205 -1.24,0 -1.972,-0.893 -0.725,-0.9 -0.725,-2.53 0,-0.893 0.248,-1.538 0.254,-0.651 0.688,-1.123 0.403,-0.44 0.98,-0.682 0.577,-0.248 1.147,-0.248 0.602,0 1.005,0.124 0.409,0.118 0.862,0.366 l 0.074,-0.298 h 1.091 z m -1.165,-1.117 v -3.776 q -0.465,-0.211 -0.869,-0.298 -0.396,-0.093 -0.793,-0.093 -0.961,0 -1.513,0.645 -0.552,0.645 -0.552,1.873 0,1.166 0.409,1.767 0.41,0.602 1.358,0.602 0.509,0 1.017,-0.193 0.515,-0.198 0.943,-0.527 z m 9.252,1.9039 h -1.166 v -3.9439 q 0,-0.477 -0.056,-0.893 -0.056,-0.421 -0.204,-0.657 -0.156,-0.26 -0.447,-0.385 -0.291,-0.13 -0.757,-0.13 -0.477,0 -0.998,0.236 -0.52,0.235 -0.998,0.601 v 5.1719 h -1.166 v -6.9269 h 1.166 v 0.77 q 0.545,-0.453 1.128,-0.708 0.583,-0.254 1.197,-0.254 1.123,0 1.712,0.676 0.589,0.676 0.589,1.947 z"
           style="font-size:12.7px;font-family:'.SF Arabic';-inkscape-font-specification:'.SF Arabic, Normal';fill:#22573b;stroke-width:0.264582"
           aria-label="Web Design"
           id="path8" /><path
           style="font-size:19.7556px;font-family:'.Arial Hebrew Desk Interface';-inkscape-font-specification:'.Arial Hebrew Desk Interface, Normal';fill:#22573b;stroke-width:0.264582"
           d="m -3082.4705,2886.1407 -5.1319,-0.01 v 12.666 h -1.91 v -12.666 l -5.132,-0.01 v -1.698 l 12.1729,0.023 z m 13.813,12.6918 h -2.48 l -4.803,-5.72 -2.691,-0.01 v 5.71 h -1.91 v -14.363 l 4.022,0.01 q 1.302,0 2.17,0.1781 0.869,0.1656 1.563,0.6009 0.782,0.4935 1.216,1.2463 0.443,0.7438 0.443,1.8918 0,1.553 -0.78,2.6036 -0.782,1.0395 -2.152,1.5679 z m -4.466,-10.3303 q 0,-0.617 -0.222,-1.0904 -0.212,-0.4824 -0.714,-0.8114 -0.415,-0.2807 -0.984,-0.3878 -0.569,-0.1171 -1.34,-0.1185 h -2.248 v 5.421 h 1.929 q 0.907,0 1.582,-0.1511 0.675,-0.1627 1.148,-0.5958 0.434,-0.4042 0.636,-0.9248 0.213,-0.5296 0.213,-1.3396 z m 11.382,10.3432 -5.672,-0.011 v -1.467 h 1.881 v -11.43 h -1.88 v -1.467 l 5.671,0.011 v 1.467 h -1.88 v 11.4299 h 1.88 z m 14.5759,0.027 h -2.035 l -1.409,-4.0066 -6.2119,-0.012 -1.408,4.0013 h -1.94 l 5.2289,-14.3542 h 2.547 z m -4.032,-5.6505 -2.518,-7.0567 -2.5269,7.0472 z m 17.17,5.6751 h -2.363 l -6.81,-12.8626 v 12.8499 h -1.785 v -14.364 l 2.961,0.01 6.213,11.7415 v -11.7299 h 1.784 z m 15.7999,-1.0315 q -1.176,0.5378 -2.575,0.9402 -1.389,0.3924 -2.691,0.39 -1.6789,0 -3.0769,-0.4688 -1.399,-0.4656 -2.383,-1.3934 -0.994,-0.9369 -1.534,-2.3369 -0.54,-1.409 -0.54,-3.291 0,-3.443 2.007,-5.4262 2.016,-1.9933 5.5269,-1.9867 1.225,0 2.498,0.3037 1.283,0.2924 2.76,0.9981 v 2.267 l -0.175,-3e-4 q -0.299,-0.2316 -0.868,-0.6086 -0.569,-0.3781 -1.119,-0.6291 -0.665,-0.3013 -1.514,-0.4948 -0.84,-0.2046 -1.91,-0.2066 -2.4119,0 -3.8199,1.5458 -1.399,1.5414 -1.399,4.1844 0,2.787 1.466,4.3427 1.467,1.5468 3.9939,1.5515 0.926,0 1.842,-0.1796 0.927,-0.1822 1.621,-0.4699 v -3.521 l -3.849,-0.01 v -1.678 l 5.74,0.011 z m 12.425,1.0832 -9.087,-0.017 v -14.363 h 1.91 v 12.6659 l 7.177,0.013 z m 11.373,0.021 -9.463,-0.018 v -14.3629 l 9.463,0.018 v 1.698 l -7.553,-0.014 v 3.936 l 7.553,0.014 v 1.697 l -7.553,-0.014 v 5.335 l 7.553,0.014 z"
           aria-label="TRIANGLE"
           id="path9" /></g></g><path
       style="fill:#1c9a58;fill-opacity:0.982935;stroke-width:2.26701"
       d="m -2716.7973,-1011.6479 -109.532,-232.9432 -108.784,-230.3688 c 79.8224,-176.2176 -0.088,-0.256 80.284,-176.752 1.9136,-6.8928 267.5376,569.2032 301.1328,642.7448 0.088,0.192 -163.1008,-2.6776 -163.1008,-2.6776 z"
       id="path10" /></g></svg>
