<svg width="447.432" height="476.612" viewBox="0 0 118.383 126.104" xml:space="preserve" xmlns="http://www.w3.org/2000/svg"><defs><path id="a" d="M-939.5-1398H-493v110h-446.5z"/></defs><path style="fill:#e9f2ec" d="m-189.82-509.257-10.204 19.438 27.38 50.544 10.366.057 10.025.199zm-59.072 105.784c.01.272.03.431.057.444h.008c.013-.01.027-.05.042-.125.014-.074.025-.162.033-.26a11.37 11.37 0 0 0-.138-.059z" transform="translate(248.892 509.257)"/><path style="fill:#dbece2" d="m-204.676-433.99-9.124 16.338 73.513.938-9.29-17.172z" transform="translate(248.892 509.257)"/><path style="fill:#d6e6dc" d="M-189.715-508.397c5.605 6.275 0 0 0 0z" transform="translate(248.892 509.257)"/><path style="fill:#cad7cf" d="M-180.216-440.236c-.192-.001-.393.014-.557.046-.33.063-.123.117.46.12.582.003.85-.05.598-.116a2.187 2.187 0 0 0-.5-.05zm-68.406 36.878c.01.199.028.314.05.326h.008c.013-.004.028-.045.043-.124a1.82 1.82 0 0 0 .022-.146l-.122-.056z" transform="translate(248.892 509.257)"/><path style="fill:#a9d1bc" d="m-201.959-485.704-35.77 67.302 17.92.117 26.907-49.041z" transform="translate(248.892 509.257)"/><path style="fill:#89a796" d="M-248.333-403.224c.012.034.025.041.04.02l-.04-.02z" transform="translate(248.892 509.257)"/><path style="fill:#1b5539" d="m-190.375-461.233-12.006 21.754 24.383.266z" transform="translate(248.892 509.257)"/><path d="m-213.455-395.01-2.4 9.233h-1.383l-1.94-7.665-1.898 7.665h-1.352l-2.443-9.233h1.259l1.94 7.677 1.91-7.677h1.247l1.928 7.751 1.929-7.751zm6.896 5.89h-5.104q0 .64.192 1.117.193.471.527.775.323.298.763.447.447.148.98.148.707 0 1.42-.279.72-.285 1.023-.558h.062v1.271q-.589.249-1.203.416-.614.167-1.29.167-1.724 0-2.69-.93-.968-.936-.968-2.654 0-1.699.924-2.697.93-.999 2.443-.999 1.401 0 2.158.819.763.818.763 2.325zm-1.135-.892q-.006-.918-.465-1.42-.453-.503-1.383-.503-.936 0-1.495.552-.551.552-.626 1.37zm8.998.72q0 .867-.248 1.562-.242.694-.658 1.166-.44.49-.967.738-.527.241-1.16.241-.589 0-1.029-.142-.44-.137-.868-.372l-.075.322h-1.09v-9.649h1.165v3.448q.49-.403 1.042-.657.552-.26 1.24-.26 1.228 0 1.935.942.713.942.713 2.66zm-1.203.03q0-1.24-.41-1.879-.409-.645-1.32-.645-.509 0-1.03.223-.52.217-.967.565v3.968q.496.224.85.31.36.087.812.087.967 0 1.513-.632.552-.639.552-1.997zm15.379-1.122q0 1.259-.552 2.282-.546 1.023-1.458 1.587-.632.39-1.413.565-.776.173-2.047.173h-2.331v-9.233h2.306q1.352 0 2.146.198.8.192 1.352.533.942.59 1.47 1.57.527.979.527 2.325zm-1.284-.019q0-1.085-.378-1.83-.379-.743-1.129-1.171-.546-.31-1.16-.428-.613-.124-1.47-.124h-1.153v7.125h1.154q.887 0 1.544-.13.663-.13 1.215-.484.689-.44 1.03-1.16.347-.719.347-1.798zm8.973 1.284h-5.103q0 .638.192 1.116.192.471.527.775.322.298.763.447.446.148.98.148.706 0 1.42-.279.719-.285 1.023-.558h.062v1.271q-.59.249-1.203.416-.614.167-1.29.167-1.724 0-2.691-.93-.968-.936-.968-2.654 0-1.699.924-2.697.93-.999 2.443-.999 1.402 0 2.158.819.763.818.763 2.325zm-1.135-.893q-.006-.918-.465-1.42-.452-.503-1.383-.503-.936 0-1.494.552-.552.552-.626 1.37zm7.851 2.238q0 .95-.788 1.557-.78.608-2.139.608-.769 0-1.414-.18-.639-.186-1.073-.403v-1.309h.062q.552.416 1.228.664.676.242 1.296.242.77 0 1.203-.248.434-.249.434-.782 0-.41-.235-.62-.236-.21-.906-.36-.248-.055-.65-.13-.398-.074-.726-.161-.912-.242-1.296-.707-.379-.471-.379-1.153 0-.428.174-.807.18-.378.54-.675.347-.292.88-.46.54-.173 1.203-.173.62 0 1.253.155.638.149 1.06.366v1.246h-.062q-.446-.328-1.085-.552-.639-.229-1.253-.229-.638 0-1.079.248-.44.242-.44.726 0 .427.267.644.26.218.843.354.322.074.72.149.402.074.67.136.811.186 1.252.639.44.459.44 1.215zm2.92-6.09h-1.314v-1.208h1.315zm-.074 8.087h-1.165v-6.927h1.165zm7.925-.787q0 1.76-.8 2.585t-2.461.825q-.552 0-1.08-.08-.52-.075-1.029-.217v-1.191h.062q.285.112.906.273.62.167 1.24.167.595 0 .986-.142.39-.143.608-.397.217-.242.31-.583.093-.341.093-.763v-.632q-.527.421-1.011.632-.478.205-1.222.205-1.24 0-1.972-.893-.725-.9-.725-2.53 0-.893.248-1.538.254-.651.688-1.123.403-.44.98-.682.577-.248 1.147-.248.602 0 1.005.124.409.118.862.366l.074-.298h1.091zm-1.165-1.117v-3.776q-.465-.211-.869-.298-.396-.093-.793-.093-.961 0-1.513.645-.552.645-.552 1.873 0 1.166.409 1.767.41.602 1.358.602.509 0 1.017-.193.515-.198.943-.527zm9.252 1.904h-1.166v-3.944q0-.477-.056-.893-.056-.421-.204-.657-.156-.26-.447-.385-.291-.13-.757-.13-.477 0-.998.236-.52.235-.998.601v5.172h-1.166v-6.927h1.166v.77q.545-.453 1.128-.708.583-.254 1.197-.254 1.123 0 1.712.676t.589 1.947z" style="font-size:12.7px;font-family:'.SF Arabic';-inkscape-font-specification:'.SF Arabic, Normal';fill:#22573b;stroke-width:.264583" aria-label="Web Design" transform="translate(248.892 509.257)"/><path style="font-size:19.7556px;font-family:'.Arial Hebrew Desk Interface';-inkscape-font-specification:'.Arial Hebrew Desk Interface, Normal';fill:#22573b;stroke-width:.264583" d="M-227.55-410.991h-5.132v12.666h-1.91v-12.666h-5.132v-1.698h12.173zm13.813 12.666h-2.48l-4.803-5.711h-2.691v5.71h-1.91v-14.363h4.022q1.302 0 2.17.174.869.164 1.563.598.782.492 1.216 1.244.443.743.443 1.891 0 1.553-.78 2.605-.782 1.041-2.152 1.572zm-4.466-10.322q0-.617-.222-1.09-.212-.482-.714-.81-.415-.28-.984-.386-.569-.116-1.34-.116h-2.248v5.421h1.929q.907 0 1.582-.154.675-.164 1.148-.598.434-.405.636-.926.213-.53.213-1.34zm11.382 10.322h-5.672v-1.467h1.881v-11.43h-1.88v-1.467h5.671v1.467h-1.88v11.43h1.88zm14.576 0h-2.035l-1.409-4.004h-6.212l-1.408 4.004h-1.94l5.229-14.364h2.547zm-4.032-5.643-2.518-7.052-2.527 7.052zm17.17 5.643h-2.363l-6.81-12.85v12.85h-1.785v-14.364h2.961l6.213 11.73v-11.73h1.784zm15.8-1.061q-1.176.54-2.575.945-1.389.395-2.691.395-1.679 0-3.077-.463-1.399-.463-2.383-1.389-.994-.935-1.534-2.334-.54-1.408-.54-3.29 0-3.443 2.007-5.43 2.016-1.997 5.527-1.997 1.225 0 2.498.299 1.283.29 2.76.993v2.267h-.175q-.299-.231-.868-.607-.569-.377-1.119-.627-.665-.3-1.514-.492-.84-.203-1.91-.203-2.412 0-3.82 1.553-1.399 1.544-1.399 4.187 0 2.787 1.466 4.34 1.467 1.544 3.994 1.544.926 0 1.842-.183.927-.184 1.621-.473v-3.521h-3.849v-1.678h5.74zm12.425 1.06h-9.087v-14.363h1.91v12.666h7.177zm11.373 0h-9.463v-14.363h9.463v1.698h-7.553v3.936h7.553v1.697h-7.553v5.335h7.553z" transform="matrix(1 .00187 0 1 248.892 509.257)" aria-label="TRIANGLE"/><path style="fill:#1c9a58;fill-opacity:.982935" d="m-652.417-1660.44-51.748-95.938-51.395-94.878c37.712-72.575-.041-.104 37.93-72.795.904-2.839 126.398 234.427 142.27 264.715.04.078-77.057-1.103-77.057-1.103z" transform="matrix(.26458 0 0 .26458 248.892 509.257)"/></svg>